<svg xmlns="http://www.w3.org/2000/svg" width="34" height="34" viewBox="0 0 34 34" fill="none">
    <path d="M17.0003 5.66666C13.0847 5.66666 9.91699 8.83433 9.91699 12.75C9.91699 13.0318 10.0289 13.302 10.2282 13.5013C10.4274 13.7006 10.6977 13.8125 10.9795 13.8125C11.2613 13.8125 11.5315 13.7006 11.7308 13.5013C11.9301 13.302 12.042 13.0318 12.042 12.75C12.042 10.0073 14.2577 7.79166 17.0003 7.79166C19.743 7.79166 21.9587 10.0073 21.9587 12.75C21.9587 13.957 21.6442 14.7617 21.2092 15.385C20.7502 16.0409 20.1227 16.5509 19.3647 17.1303L19.1692 17.2791C17.7384 18.3671 15.9378 19.7356 15.9378 22.6667V23.0208C15.9378 23.3026 16.0498 23.5729 16.249 23.7721C16.4483 23.9714 16.7185 24.0833 17.0003 24.0833C17.2821 24.0833 17.5524 23.9714 17.7516 23.7721C17.9509 23.5729 18.0628 23.3026 18.0628 23.0208V22.6667C18.0628 20.8009 19.0743 20.0274 20.5916 18.8672L20.6567 18.8176C21.4033 18.2467 22.2817 17.561 22.9517 16.6019C23.6459 15.6088 24.0837 14.3777 24.0837 12.75C24.0837 8.83433 20.916 5.66666 17.0003 5.66666ZM17.0003 29.75C17.376 29.75 17.7364 29.6007 18.0021 29.3351C18.2677 29.0694 18.417 28.7091 18.417 28.3333C18.417 27.9576 18.2677 27.5973 18.0021 27.3316C17.7364 27.0659 17.376 26.9167 17.0003 26.9167C16.6246 26.9167 16.2643 27.0659 15.9986 27.3316C15.7329 27.5973 15.5837 27.9576 15.5837 28.3333C15.5837 28.7091 15.7329 29.0694 15.9986 29.3351C16.2643 29.6007 16.6246 29.75 17.0003 29.75Z" fill="#1F1E1D"/>
</svg>
