<svg xmlns="http://www.w3.org/2000/svg" width="16" height="16" viewBox="0 0 16 16" fill="none">
    <path fill-rule="evenodd" clip-rule="evenodd" d="M5.86073 1.8356C5.9411 1.35341 6.35829 1 6.84712 1H9.15287C9.64171 1 10.0589 1.35341 10.1393 1.8356L10.2386 2.43153C10.7678 2.64449 11.2597 2.93071 11.7017 3.27764L12.2689 3.06514C12.7267 2.89364 13.2413 3.07823 13.4857 3.50158L14.6386 5.49842C14.883 5.92176 14.7856 6.45977 14.4082 6.77046L13.941 7.15507C13.9799 7.43112 14 7.71321 14 8C14 8.28679 13.9799 8.56888 13.941 8.84493L14.4082 9.22954C14.7856 9.54023 14.883 10.0782 14.6386 10.5016L13.4857 12.4984C13.2413 12.9218 12.7267 13.1064 12.2689 12.9349L11.7017 12.7224C11.2597 13.0693 10.7678 13.3555 10.2386 13.5685L10.1393 14.1644C10.0589 14.6466 9.64171 15 9.15287 15H6.84712C6.35829 15 5.9411 14.6466 5.86073 14.1644L5.76141 13.5685C5.23217 13.3555 4.74029 13.0693 4.29832 12.7224L3.73111 12.9349C3.27334 13.1064 2.75868 12.9218 2.51426 12.4984L1.36139 10.5016C1.11697 10.0782 1.21444 9.54023 1.59184 9.22954L2.05903 8.84494C2.02012 8.56888 2 8.28679 2 8C2 7.71321 2.02012 7.43112 2.05903 7.15506L1.59184 6.77046C1.21444 6.45977 1.11697 5.92176 1.36139 5.49842L2.51426 3.50158C2.75868 3.07824 3.27334 2.89364 3.73111 3.06514L4.29832 3.27764C4.74029 2.93071 5.23217 2.64449 5.76141 2.43153L5.86073 1.8356ZM11 8C11 9.65685 9.65685 11 8 11C6.34315 11 5 9.65685 5 8C5 6.34315 6.34315 5 8 5C9.65685 5 11 6.34315 11 8Z" fill="#687684"/>
</svg>
