<svg xmlns="http://www.w3.org/2000/svg" width="33" height="32" viewBox="0 0 33 32" fill="none">
    <path d="M16.5 2C16.7652 2 17.0196 2.10536 17.2071 2.29289C17.3946 2.48043 17.5 2.73478 17.5 3V9C17.5 9.26522 17.3946 9.51957 17.2071 9.70711C17.0196 9.89464 16.7652 10 16.5 10C16.2348 10 15.9804 9.89464 15.7929 9.70711C15.6054 9.51957 15.5 9.26522 15.5 9V3C15.5 2.73478 15.6054 2.48043 15.7929 2.29289C15.9804 2.10536 16.2348 2 16.5 2ZM16.5 22C16.7652 22 17.0196 22.1054 17.2071 22.2929C17.3946 22.4804 17.5 22.7348 17.5 23V29C17.5 29.2652 17.3946 29.5196 17.2071 29.7071C17.0196 29.8946 16.7652 30 16.5 30C16.2348 30 15.9804 29.8946 15.7929 29.7071C15.6054 29.5196 15.5 29.2652 15.5 29V23C15.5 22.7348 15.6054 22.4804 15.7929 22.2929C15.9804 22.1054 16.2348 22 16.5 22ZM30.5 16C30.5 16.2652 30.3946 16.5196 30.2071 16.7071C30.0196 16.8946 29.7652 17 29.5 17H23.5C23.2348 17 22.9804 16.8946 22.7929 16.7071C22.6054 16.5196 22.5 16.2652 22.5 16C22.5 15.7348 22.6054 15.4804 22.7929 15.2929C22.9804 15.1054 23.2348 15 23.5 15H29.5C29.7652 15 30.0196 15.1054 30.2071 15.2929C30.3946 15.4804 30.5 15.7348 30.5 16ZM10.5 16C10.5 16.2652 10.3946 16.5196 10.2071 16.7071C10.0196 16.8946 9.76522 17 9.5 17H3.5C3.23478 17 2.98043 16.8946 2.79289 16.7071C2.60536 16.5196 2.5 16.2652 2.5 16C2.5 15.7348 2.60536 15.4804 2.79289 15.2929C2.98043 15.1054 3.23478 15 3.5 15H9.5C9.76522 15 10.0196 15.1054 10.2071 15.2929C10.3946 15.4804 10.5 15.7348 10.5 16ZM6.6 6.1C6.78753 5.91253 7.04184 5.80721 7.307 5.80721C7.57216 5.80721 7.82647 5.91253 8.014 6.1L12.26 10.344C12.4422 10.5326 12.543 10.7852 12.5407 11.0474C12.5384 11.3096 12.4332 11.5604 12.2478 11.7458C12.0624 11.9312 11.8116 12.0364 11.5494 12.0387C11.2872 12.041 11.0346 11.9402 10.846 11.758L6.6 7.514C6.41253 7.32647 6.30721 7.07216 6.30721 6.807C6.30721 6.54184 6.41253 6.28753 6.6 6.1ZM20.742 20.242C20.9295 20.0545 21.1838 19.9492 21.449 19.9492C21.7142 19.9492 21.9685 20.0545 22.156 20.242L26.4 24.486C26.5822 24.6746 26.683 24.9272 26.6807 25.1894C26.6784 25.4516 26.5732 25.7024 26.3878 25.8878C26.2024 26.0732 25.9516 26.1784 25.6894 26.1807C25.4272 26.183 25.1746 26.0822 24.986 25.9L20.742 21.656C20.5545 21.4685 20.4492 21.2142 20.4492 20.949C20.4492 20.6838 20.5545 20.4295 20.742 20.242ZM26.4 6.102C26.5869 6.28945 26.6918 6.54333 26.6918 6.808C26.6918 7.07267 26.5869 7.32655 26.4 7.514L22.156 11.76C21.9674 11.9422 21.7148 12.043 21.4526 12.0407C21.1904 12.0384 20.9396 11.9332 20.7542 11.7478C20.5688 11.5624 20.4636 11.3116 20.4613 11.0494C20.459 10.7872 20.5598 10.5346 20.742 10.346L24.986 6.102C25.1735 5.91453 25.4278 5.80921 25.693 5.80921C25.9582 5.80921 26.2125 5.91453 26.4 6.102ZM12.258 20.242C12.4455 20.4295 12.5508 20.6838 12.5508 20.949C12.5508 21.2142 12.4455 21.4685 12.258 21.656L8.014 25.9C7.8254 26.0822 7.5728 26.183 7.3106 26.1807C7.0484 26.1784 6.79759 26.0732 6.61218 25.8878C6.42677 25.7024 6.3216 25.4516 6.31933 25.1894C6.31705 24.9272 6.41784 24.6746 6.6 24.486L10.844 20.242C11.0315 20.0545 11.2858 19.9492 11.551 19.9492C11.8162 19.9492 12.0705 20.0545 12.258 20.242Z" fill="#1F1E1D"/>
</svg>
